General
Complete name                    : The Curious Case Of Benjamin Button.mkv
Format                           : Matroska
File size                        : 1.32 GiB
Duration                         : 2h 46mn
Overall bit rate                 : 1 139 Kbps


Video
ID                               : 1
Format                           : AVC

Duration                         : 2h 46mn
Bit rate                         : 668 Kbps
Width                            : 718 pixels
Height                           : 356 pixels
Display aspect ratio             : 2.35:1
Original display aspect ratio    : 2.35:1
Frame rate                       : 25.000 fps
Resolution                       : 8 bits
Colorimetry                      : 4:2:0
Scan type                        : Progressive
Bits/(Pixel*Frame)               : 0.105
Stream size                      : 794 MiB (59%)
Writing library                  : x264 core 79


Audio
ID                               : 2
Format                           : AC-3
Format/Info                      : Audio Coding 3
Codec ID                         : A_AC3
Duration                         : 2h 46mn
Bit rate mode                    : Constant
Bit rate                         : 448 Kbps
Channel(s)                       : 6 channels
Channel positions                : Front: L C R, Surround: L R, LFE
Sampling rate                    : 48.0 KHz
Stream size                      : 532 MiB (39%)
Language                         : English

Text #1
Language                         : English

Text #2
Language                         : French

Text #3
Language                         : Spanish

Text #4
Language                         : Chinese

Text #5
Language                         : Swedish

Text #6
Language                         : Danish

Text #7
Language                         : Russian

Menu
00:00:00.000                     : Chapter 1


